<svg width="329" height="127" viewBox="0 0 329 127" fill="none" xmlns="http://www.w3.org/2000/svg">
<path d="M9.34388 98.4321V28.2881H29.8239V98.4321H9.34388ZM-0.000124931 43.3921V28.2881H29.8239V43.3921H-0.000124931ZM17.2799 21.3761C13.4399 21.3761 10.5812 20.3948 8.70388 18.4321C6.91188 16.3841 6.01588 13.8241 6.01588 10.7521C6.01588 7.59479 6.91188 5.03479 8.70388 3.07212C10.5812 1.02412 13.4399 0.00012207 17.2799 0.00012207C21.1199 0.00012207 23.9359 1.02412 25.7279 3.07212C27.6052 5.03479 28.5439 7.59479 28.5439 10.7521C28.5439 13.8241 27.6052 16.3841 25.7279 18.4321C23.9359 20.3948 21.1199 21.3761 17.2799 21.3761ZM48.7659 98.4321V28.2881H65.0219V58.4961H63.8699C63.8699 51.3281 64.7659 45.3548 66.5579 40.5761C68.3499 35.7975 71.0379 32.2135 74.6219 29.8241C78.2059 27.3495 82.6005 26.1121 87.8059 26.1121H88.7019C93.9925 26.1121 98.3872 27.3495 101.886 29.8241C105.47 32.2135 108.158 35.7975 109.95 40.5761C111.827 45.3548 112.766 51.3281 112.766 58.4961H107.774C107.774 51.3281 108.67 45.3548 110.462 40.5761C112.339 35.7975 115.07 32.2135 118.654 29.8241C122.238 27.3495 126.633 26.1121 131.838 26.1121H132.734C138.025 26.1121 142.462 27.3495 146.046 29.8241C149.715 32.2135 152.489 35.7975 154.366 40.5761C156.243 45.3548 157.182 51.3281 157.182 58.4961V98.4321H136.702V57.3441C136.702 53.5041 135.678 50.3895 133.63 48.0001C131.667 45.6108 128.851 44.4161 125.182 44.4161C121.513 44.4161 118.611 45.6535 116.478 48.1281C114.345 50.5175 113.278 53.7175 113.278 57.7281V98.4321H92.6699V57.3441C92.6699 53.5041 91.6459 50.3895 89.5979 48.0001C87.6352 45.6108 84.8619 44.4161 81.2779 44.4161C77.5232 44.4161 74.5792 45.6535 72.4459 48.1281C70.3125 50.5175 69.2459 53.7175 69.2459 57.7281V98.4321H48.7659ZM202.289 126.336C198.876 126.336 195.377 126.208 191.793 125.952C188.209 125.696 184.924 125.355 181.937 124.928V107.648C184.924 108.075 188.209 108.416 191.793 108.672C195.462 109.013 198.79 109.184 201.777 109.184C207.324 109.184 211.804 108.544 215.217 107.264C218.716 105.984 221.276 104.021 222.897 101.376C224.518 98.8161 225.329 95.4881 225.329 91.3921V77.4401L229.041 69.2481C228.87 75.4775 227.633 80.8108 225.329 85.2481C223.11 89.6855 219.996 93.0988 215.985 95.4881C211.974 97.7921 207.196 98.9441 201.649 98.9441C196.87 98.9441 192.518 98.0908 188.593 96.3841C184.753 94.5921 181.468 92.1175 178.737 88.9601C176.006 85.8028 173.916 82.1335 172.465 77.9521C171.014 73.6855 170.289 69.0775 170.289 64.1281V61.1841C170.289 56.2348 171.057 51.6268 172.593 47.3601C174.129 43.0935 176.348 39.3815 179.249 36.2241C182.15 33.0668 185.606 30.6348 189.617 28.9281C193.628 27.1361 198.065 26.2401 202.929 26.2401C208.561 26.2401 213.425 27.4775 217.521 29.9521C221.702 32.4268 224.988 36.0535 227.377 40.8321C229.766 45.6108 231.046 51.3708 231.217 58.1121L228.401 58.8801V28.2881H244.657V90.1121C244.657 98.7308 243.121 105.685 240.049 110.976C236.977 116.267 232.284 120.149 225.969 122.624C219.74 125.099 211.846 126.336 202.289 126.336ZM208.049 81.6641C211.206 81.6641 214.065 80.9815 216.625 79.6161C219.185 78.1655 221.19 76.1175 222.641 73.4721C224.177 70.8268 224.945 67.6268 224.945 63.8721V60.1601C224.945 56.4908 224.134 53.4188 222.513 50.9441C220.977 48.3841 218.929 46.4641 216.369 45.1841C213.809 43.8188 211.078 43.1361 208.177 43.1361C204.764 43.1361 201.734 43.9468 199.089 45.5681C196.444 47.1895 194.396 49.4508 192.945 52.3521C191.494 55.2535 190.769 58.6668 190.769 62.5921C190.769 66.6028 191.494 70.0588 192.945 72.9601C194.481 75.7761 196.529 77.9521 199.089 79.4881C201.734 80.9388 204.721 81.6641 208.049 81.6641Z" fill="#17805F"/>
<path d="M254.583 98.4321L276.343 60.8001L275.831 64.0001L255.351 28.2881H277.495L290.167 52.0961H292.215L304.119 28.2881H324.983L305.399 64.2561L305.911 61.5681L328.951 98.4321H306.679L291.575 72.9601H289.527L275.319 98.4321H254.583Z" fill="black"/>
</svg>
